<?xml version="1.0" encoding="UTF-8" standalone="no"?>
<svg
   xmlns:dc="http://purl.org/dc/elements/1.1/"
   xmlns:cc="http://creativecommons.org/ns#"
   xmlns:rdf="http://www.w3.org/1999/02/22-rdf-syntax-ns#"
   xmlns:svg="http://www.w3.org/2000/svg"
   xmlns="http://www.w3.org/2000/svg"
   viewBox="0 0 813.33331 353.33334"
   height="353.33334"
   width="813.33331"
   xml:space="preserve"
   id="svg2"
   version="1.1"><metadata
     id="metadata8"><rdf:RDF><cc:Work
         rdf:about=""><dc:format>image/svg+xml</dc:format><dc:type
           rdf:resource="http://purl.org/dc/dcmitype/StillImage" /></cc:Work></rdf:RDF></metadata><defs
     id="defs6"><clipPath
       id="clipPath20"
       clipPathUnits="userSpaceOnUse"><path
         id="path18"
         d="M 0,0 H 6099.9 V 2640.03 H 0 Z" /></clipPath></defs><g
     transform="matrix(1.3333333,0,0,-1.3333333,0,353.33333)"
     id="g10"><g
       transform="scale(0.1)"
       id="g12"><g
         id="g14"><g
           clip-path="url(#clipPath20)"
           id="g16"><path
             id="path22"
             style="fill:#e92729;fill-opacity:1;fill-rule:nonzero;stroke:none"
             d="m 611.355,1451.03 h 305.672 v 315.62 h 719.593 v 262.03 H 611.355 v -577.65" /><path
             id="path24"
             style="fill:#e92729;fill-opacity:1;fill-rule:nonzero;stroke:none"
             d="M 611.355,611.352 H 1636.62 V 873.391 H 917.027 V 1189 H 611.355 V 611.352" /><path
             id="path26"
             style="fill:#e92729;fill-opacity:1;fill-rule:nonzero;stroke:none"
             d="m 1575.09,1189 v 262.03 H 917.027 V 1189 h 658.063" /><path
             id="path28"
             style="fill:#e92729;fill-opacity:1;fill-rule:nonzero;stroke:none"
             d="m 2697.57,1527.71 c -15.24,-20.63 -35.42,-36.63 -60.54,-47.92 -25.16,-11.31 -54.28,-18.94 -87.35,-22.85 -33.09,-3.96 -67.48,-5.91 -103.23,-5.91 h -242.16 v 315.57 h 242.16 c 35.75,0 70.14,-1.99 103.23,-5.9 33.07,-3.93 62.19,-11.57 87.35,-22.86 25.12,-11.3 45.3,-27.27 60.54,-47.92 15.2,-20.64 22.83,-47.7 22.83,-81.11 0,-33.42 -7.63,-60.45 -22.83,-81.1 z m 212.4,370.8 c -39.06,39.1 -89.67,70.59 -151.86,94.42 -62.21,23.82 -137.65,35.75 -226.28,35.75 H 1898.62 V 611.352 h 305.67 v 577.708 h 327.54 c 88.63,0 164.07,11.9 226.28,35.73 62.19,23.85 112.8,55.28 151.86,94.42 39.03,39.1 67.48,84.02 85.35,134.74 17.88,50.7 26.8,102.35 26.8,154.91 0,53.76 -8.92,105.7 -26.8,155.82 -17.87,50.11 -46.32,94.71 -85.35,133.83" /><path
             id="path30"
             style="fill:#e92729;fill-opacity:1;fill-rule:nonzero;stroke:none"
             d="M 4768.96,873.391 V 2028.68 H 4463.29 V 611.352 h 1025.26 v 262.039 h -719.59" /><path
             id="path32"
             style="fill:#e92729;fill-opacity:1;fill-rule:nonzero;stroke:none"
             d="m 3216.64,1451.03 h 305.68 v 315.62 h 719.59 v 262.03 H 3216.64 v -577.65" /><path
             id="path34"
             style="fill:#e92729;fill-opacity:1;fill-rule:nonzero;stroke:none"
             d="m 3216.64,611.352 h 305.68 V 1189 H 3216.64 V 611.352" /><path
             id="path36"
             style="fill:#e92729;fill-opacity:1;fill-rule:nonzero;stroke:none"
             d="m 4180.38,1189 v 262.03 H 3522.32 V 1189 h 658.06" /></g></g></g></g></svg>