<?xml version="1.0" encoding="UTF-8" standalone="no"?>
<svg
   xmlns:dc="http://purl.org/dc/elements/1.1/"
   xmlns:cc="http://creativecommons.org/ns#"
   xmlns:rdf="http://www.w3.org/1999/02/22-rdf-syntax-ns#"
   xmlns:svg="http://www.w3.org/2000/svg"
   xmlns="http://www.w3.org/2000/svg"
   viewBox="0 0 2864.7732 716.26666"
   height="716.26666"
   width="2864.7732"
   xml:space="preserve"
   id="svg2"
   version="1.1"><metadata
     id="metadata8"><rdf:RDF><cc:Work
         rdf:about=""><dc:format>image/svg+xml</dc:format><dc:type
           rdf:resource="http://purl.org/dc/dcmitype/StillImage" /></cc:Work></rdf:RDF></metadata><defs
     id="defs6" /><g
     transform="matrix(1.3333333,0,0,1.3333333,0,1.524e-5)"
     id="g10"><g
       id="g12"><path
         id="path14"
         style="fill:#74c82c;fill-opacity:1;fill-rule:nonzero;stroke:none"
         d="m 827.52,435.664 c 0,5.5 -4.5,10 -10,10 h -13.821 c -5.5,0 -10,-4.5 -10,-10 V 331.078 c 0,-5.5 -0.48,-14.473 -1.066,-19.941 0,0 -1.75,-16.325 -7.387,-23.782 -5.637,-7.449 -13.703,-11.171 -24.199,-11.171 -4.535,0 -8.777,0.617 -12.731,1.843 -3.953,1.235 -8.066,3.371 -12.339,6.414 -4.278,3.047 -8.942,7.161 -13.997,12.344 -5.05,5.184 -10.882,11.66 -17.492,19.434 v 119.445 c 0,5.5 -4.5,10 -10,10 h -13.816 c -5.5,0 -10,-4.5 -10,-10 V 181.031 c 0,-5.5 4.5,-10 10,-10 h 13.816 c 5.5,0 10,4.5 10,10 v 59.496 c 0,5.5 -0.172,14.496 -0.379,19.993 l -0.406,10.722 c -0.211,5.496 2.629,6.649 6.309,2.563 0,0 3.836,-4.262 8.957,-8.606 5.117,-4.34 10.234,-7.871 15.355,-10.59 5.117,-2.722 10.328,-4.668 15.645,-5.832 5.312,-1.168 10.816,-1.75 16.519,-1.75 19.438,0 34.465,5.93 45.094,17.785 10.621,11.856 15.938,29.708 15.938,53.547 v 117.305" /><path
         id="path16"
         style="fill:#74c82c;fill-opacity:1;fill-rule:nonzero;stroke:none"
         d="m 1009.16,332.938 c 5.5,0 9.879,-4.5 9.719,-10 0,0 -0.18,-6.622 -2.25,-13.813 -2.07,-7.191 -5.277,-13.379 -9.617,-18.563 -4.34,-5.179 -9.754,-9.23 -16.231,-12.144 -6.48,-2.914 -13.996,-4.375 -22.547,-4.375 -7.382,0 -14.125,1.43 -20.214,4.277 -6.09,2.852 -11.336,6.868 -15.743,12.051 -4.406,5.184 -7.968,11.402 -10.687,18.656 -2.723,7.258 -4.406,15.231 -5.055,23.911 z m 45.18,4.855 c 0,4.797 -0.07,8.812 -0.199,12.051 -0.129,3.242 -0.321,6.289 -0.582,9.136 H 926.535 c -5.5,0 -9.297,4.446 -8.441,9.875 0,0 4.011,25.403 15.156,36.09 11.145,10.692 27.211,16.035 48.203,16.035 5.699,0 11.399,-0.222 17.102,-0.679 5.707,-0.453 11.207,-1.071 16.523,-1.848 5.313,-0.777 10.391,-1.652 15.25,-2.625 4.863,-0.969 9.363,-2.039 13.512,-3.207 v 17.793 c 0,5.5 -4.371,11.051 -9.719,12.332 0,0 -9.883,2.367 -21.473,3.988 -11.597,1.618 -23.617,2.426 -36.054,2.426 -16.715,0 -31.098,-2.265 -43.149,-6.801 -12.05,-4.535 -21.933,-11.109 -29.64,-19.726 -7.711,-8.617 -13.41,-19.176 -17.106,-31.684 -3.691,-12.5 -5.539,-26.656 -5.539,-42.465 0,-13.734 1.977,-26.722 5.93,-38.968 3.949,-12.246 9.719,-23 17.297,-32.266 7.582,-9.262 16.879,-16.617 27.89,-22.059 11.012,-5.441 23.52,-8.164 37.512,-8.164 13.606,0 25.656,2.137 36.152,6.414 10.5,4.278 19.34,10.336 26.528,18.172 7.191,7.844 12.633,17.367 16.332,28.575 3.687,11.207 5.539,23.742 5.539,37.605" /><path
         id="path18"
         style="fill:#74c82c;fill-opacity:1;fill-rule:nonzero;stroke:none"
         d="m 1278.09,437.801 c 3.39,4.324 1.68,7.863 -3.82,7.863 h -24.899 c -5.5,0 -12.601,-3.676 -15.781,-8.164 l -41.121,-58.113 c -3.168,-4.489 -8.348,-4.477 -11.508,0.031 l -40.621,58.055 c -3.149,4.504 -10.231,8.191 -15.731,8.191 h -23.73 c -5.5,0 -7.25,-3.562 -3.891,-7.918 l 63.383,-82.125 c 3.359,-4.351 3.43,-11.527 0.149,-15.945 l -60.192,-81.117 c -3.269,-4.418 -1.449,-8.032 4.051,-8.032 h 23.34 c 5.5,0 12.543,3.715 15.64,8.254 l 40.02,58.516 c 3.109,4.539 8.16,4.515 11.223,-0.051 l 39.199,-58.418 c 3.058,-4.566 10.07,-8.301 15.57,-8.301 h 21.789 c 5.5,0 7.301,3.602 4.012,8.008 l -61.301,81.942 c -3.293,4.406 -3.211,11.546 0.188,15.871 l 64.031,81.453" /><path
         id="path20"
         style="fill:#3a3a3c;fill-opacity:1;fill-rule:nonzero;stroke:none"
         d="m 1484.07,435.664 c 0,5.5 -4.5,10 -10,10 h -13.82 c -5.5,0 -10,-4.5 -10,-10 V 331.078 c 0,-5.5 -0.48,-14.473 -1.07,-19.941 0,0 -1.75,-16.325 -7.391,-23.782 -5.629,-7.449 -13.699,-11.171 -24.187,-11.171 -4.543,0 -8.782,0.617 -12.731,1.843 -3.961,1.235 -8.07,3.371 -12.351,6.414 -4.27,3.047 -8.942,7.161 -13.989,12.344 -5.051,5.184 -10.883,11.66 -17.492,19.434 v 119.445 c 0,5.5 -4.5,10 -10,10 h -13.82 c -5.5,0 -10,-4.5 -10,-10 V 181.031 c 0,-5.5 4.5,-10 10,-10 h 13.82 c 5.5,0 10,4.5 10,10 v 59.496 c 0,5.5 -0.168,14.496 -0.379,19.993 l -0.41,10.722 c -0.211,5.496 2.629,6.649 6.309,2.563 0,0 3.839,-4.262 8.961,-8.606 5.109,-4.34 10.23,-7.871 15.351,-10.59 5.117,-2.722 10.328,-4.668 15.649,-5.832 5.308,-1.168 10.808,-1.75 16.519,-1.75 19.43,0 34.461,5.93 45.09,17.785 10.621,11.856 15.941,29.708 15.941,53.547 v 117.305" /><path
         id="path22"
         style="fill:#3a3a3c;fill-opacity:1;fill-rule:nonzero;stroke:none"
         d="m 1624.402,168.699 c 3.754,0 7.25,0.68 10.493,2.039 3.242,1.364 6.066,3.274 8.46,5.735 2.395,2.465 4.266,5.281 5.625,8.457 1.36,3.175 2.04,6.64 2.04,10.398 0,3.629 -0.68,7.063 -2.04,10.301 -1.359,3.238 -3.23,6.09 -5.625,8.551 -2.394,2.461 -5.218,4.375 -8.46,5.734 -3.243,1.359 -6.739,2.039 -10.493,2.039 -3.754,0 -7.257,-0.68 -10.5,-2.039 -3.234,-1.359 -6.058,-3.273 -8.453,-5.734 -2.394,-2.461 -4.277,-5.313 -5.637,-8.551 -1.359,-3.238 -2.039,-6.672 -2.039,-10.301 0,-3.758 0.68,-7.223 2.039,-10.398 1.36,-3.176 3.243,-5.992 5.637,-8.457 2.395,-2.461 5.219,-4.371 8.453,-5.735 3.243,-1.359 6.746,-2.039 10.5,-2.039 z m -11.859,119.817 c 0,-5.5 -4.5,-10 -10,-10 h -37.727 c -5.504,0 -10,-4.5 -10,-10 v -7.993 c 0,-5.5 4.496,-10 10,-10 h 71.938 c 5.504,0 10,4.5 10,10 V 407.48 c 0,5.5 4.496,10 10,10 h 38.113 c 5.5,0 10,4.5 10,10 v 8.184 c 0,5.5 -4.5,10 -10,10 h -136.465 c -5.5,0 -9.996,-4.5 -9.996,-10 v -8.184 c 0,-5.5 4.496,-10 9.996,-10 h 44.141 c 5.5,0 10,-4.5 10,-10 V 288.516" /><path
         id="path24"
         style="fill:#3a3a3c;fill-opacity:1;fill-rule:nonzero;stroke:none"
         d="m 1750.293,259.836 c -1.996,-5.121 0.867,-9.313 6.367,-9.313 h 18.477 c 5.504,0 11.574,4.223 13.476,9.379 l 40.864,110.301 c 1.914,5.16 4.871,13.656 6.582,18.883 l 4.089,12.476 c 1.711,5.227 4.516,5.235 6.25,0.012 l 4.395,-13.277 c 1.734,-5.223 4.719,-13.715 6.609,-18.875 l 40.496,-109.516 c 1.911,-5.16 7.973,-9.383 13.473,-9.383 h 17.109 c 5.504,0 8.368,4.192 6.36,9.309 l -69.278,176.523 c -2.007,5.122 -8.16,9.309 -13.652,9.309 h -18.867 c -5.504,0 -11.645,-4.191 -13.641,-9.312 l -69.109,-176.516" /><path
         id="path26"
         style="fill:#3a3a3c;fill-opacity:1;fill-rule:nonzero;stroke:none"
         d="m 2103.41,332.934 c 5.496,0 9.875,-4.496 9.731,-9.996 0,0 -0.188,-6.622 -2.254,-13.813 -2.086,-7.191 -5.289,-13.379 -9.625,-18.563 -4.336,-5.179 -9.754,-9.23 -16.227,-12.144 -6.484,-2.918 -13.984,-4.375 -22.551,-4.375 -7.382,0 -14.117,1.43 -20.207,4.277 -6.089,2.852 -11.336,6.868 -15.742,12.051 -4.414,5.184 -7.973,11.402 -10.687,18.656 -2.731,7.262 -4.418,15.227 -5.063,23.907 z m 45.176,4.859 c 0,4.797 -0.066,8.812 -0.188,12.051 -0.128,3.242 -0.328,6.289 -0.578,9.133 h -127.031 c -5.508,0 -9.293,4.449 -8.449,9.878 0,0 4.008,25.403 15.16,36.09 11.152,10.692 27.219,16.035 48.203,16.035 5.695,0 11.402,-0.226 17.098,-0.679 5.707,-0.453 11.219,-1.071 16.527,-1.848 5.313,-0.777 10.402,-1.652 15.254,-2.625 4.863,-0.969 9.359,-2.039 13.512,-3.207 v 17.793 c 0,5.5 -4.379,11.051 -9.715,12.332 0,0 -9.887,2.367 -21.488,3.988 -11.586,1.618 -23.606,2.426 -36.051,2.426 -16.699,0 -31.094,-2.265 -43.145,-6.801 -12.047,-4.535 -21.933,-11.109 -29.644,-19.726 -7.711,-8.617 -13.406,-19.176 -17.094,-31.684 -3.691,-12.5 -5.539,-26.656 -5.539,-42.465 0,-13.734 1.965,-26.726 5.934,-38.968 3.941,-12.246 9.714,-23 17.293,-32.266 7.578,-9.262 16.871,-16.617 27.89,-22.059 11.008,-5.441 23.504,-8.164 37.504,-8.164 13.602,0 25.652,2.137 36.156,6.414 10.493,4.278 19.336,10.332 26.535,18.172 7.184,7.844 12.625,17.364 16.317,28.575 3.691,11.207 5.539,23.742 5.539,37.605" /><path
         id="path28"
         style="fill:#3a3a3c;fill-opacity:1;fill-rule:nonzero;stroke:none"
         d="m 214.926,182.934 c -5.5,0 -12.25,3.894 -15,8.66 l -39.438,68.308 c -2.75,4.766 -2.75,12.559 0,17.325 l 39.438,68.308 c 2.75,4.766 9.5,8.66 15,8.66 h 78.879 c 5.5,0 12.25,-3.898 15,-8.66 l 39.441,-68.308 c 2.75,-4.766 2.75,-12.559 0,-17.325 L 308.809,191.59 c -2.75,-4.762 -9.5,-8.66 -15,-8.66 l -78.883,0.004" /><path
         id="path30"
         style="fill:#87ce26;fill-opacity:1;fill-rule:nonzero;stroke:none"
         d="m 214.93,365.934 c -5.5,0 -12.25,3.894 -15,8.66 l -39.442,68.308 c -2.75,4.766 -2.75,12.559 0,17.325 l 39.438,68.312 c 2.75,4.762 9.5,8.66 15,8.66 l 78.883,-0.004 c 5.5,0 12.25,-3.894 15,-8.66 l 39.437,-68.308 c 2.75,-4.762 2.75,-12.559 0,-17.321 l -39.437,-68.312 c -2.75,-4.762 -9.5,-8.66 -15,-8.66 H 214.93" /><path
         id="path32"
         style="fill:#37913a;fill-opacity:1;fill-rule:nonzero;stroke:none"
         d="m 214.926,0 c -5.5,0 -12.25,3.895 -15,8.66 l -39.442,68.309 c -2.75,4.765 -2.75,12.558 0,17.32 l 39.442,68.313 c 2.75,4.761 9.5,8.671 15,8.683 l 79.668,0.184 c 5.5,0.015 12.25,-3.871 15,-8.637 L 349.031,94.52 c 2.75,-4.762 2.731,-12.543 -0.047,-17.29 L 308.855,8.629 c -2.777,-4.746 -9.55,-8.633 -15.05,-8.633 L 214.926,0" /><path
         id="path34"
         style="fill:#55bf35;fill-opacity:1;fill-rule:nonzero;stroke:none"
         d="m 373.383,274.414 c -5.5,0 -12.25,3.898 -15,8.66 l -39.442,68.313 c -2.75,4.761 -2.75,12.558 0,17.32 l 39.442,68.313 c 2.75,4.761 9.5,8.66 15,8.66 h 78.879 c 5.5,0 12.25,-3.899 15,-8.66 l 39.437,-68.313 c 2.75,-4.762 2.75,-12.559 0,-17.32 l -39.437,-68.313 c -2.75,-4.762 -9.5,-8.66 -15,-8.66 h -78.879" /><path
         id="path36"
         style="fill:#55bf35;fill-opacity:1;fill-rule:nonzero;stroke:none"
         d="m 56.504,91.465 c -5.5,0 -12.25,3.894 -15,8.66 L 2.062,168.438 c -2.75,4.761 -2.75,12.554 0,17.32 l 39.442,68.308 c 2.75,4.766 9.5,8.661 15,8.661 h 78.879 c 5.5,0 12.25,-3.895 15,-8.661 l 39.437,-68.308 c 2.75,-4.766 2.75,-12.559 0,-17.32 l -39.437,-68.313 c -2.75,-4.766 -9.5,-8.66 -15,-8.66 H 56.504" /><path
         id="path38"
         style="fill:#37913a;fill-opacity:1;fill-rule:nonzero;stroke:none"
         d="m 56.504,274.398 c -5.5,0 -12.25,3.899 -15,8.661 L 2.062,351.371 c -2.75,4.762 -2.75,12.559 0,17.32 l 39.442,68.313 c 2.75,4.762 9.5,8.66 15,8.66 l 78.879,-0.004 c 5.5,0 12.25,-3.894 15,-8.656 l 39.437,-68.316 c 2.75,-4.762 2.75,-12.555 0,-17.321 l -39.437,-68.308 c -2.75,-4.762 -9.5,-8.661 -15,-8.661 H 56.504" /><path
         id="path40"
         style="fill:#ffffff;fill-opacity:1;fill-rule:evenodd;stroke:none"
         d="m 418.539,58.117 c 2.133,0.344 -0.117,2.695 -5.004,5.219 l -12.18,6.301 c -4.886,2.527 -5.293,1.883 -0.902,-1.43 l 6.227,-4.695 c 4.39,-3.313 9.726,-5.739 11.859,-5.395" /><path
         id="path42"
         style="fill:#3a3a3c;fill-opacity:1;fill-rule:nonzero;stroke:none"
         d="m 1617.273,165.402 c -5.5,0 -12.25,3.899 -14.992,8.66 l -7.363,12.75 c -2.754,4.762 -2.754,12.555 0,17.321 l 7.363,12.746 c 2.742,4.766 9.492,8.66 14.992,8.66 h 14.723 c 5.5,0 12.25,-3.894 15.004,-8.66 l 7.352,-12.746 c 2.753,-4.766 2.753,-12.559 0,-17.321 L 1647,174.062 c -2.754,-4.761 -9.504,-8.66 -15.004,-8.66 h -14.723" /><path
         id="path44"
         style="fill:#505256;fill-opacity:1;fill-rule:nonzero;stroke:none"
         d="m 523.379,175.371 c -5.449,-0.738 -9.117,0.024 -8.152,1.695 0.961,1.672 -0.497,6.934 -3.247,11.7 l -33.375,57.804 c -2.75,4.766 -2.027,5.285 1.614,1.16 l 54.988,-62.359 c 3.641,-4.125 2.156,-8.105 -3.293,-8.844 l -8.535,-1.156" /><path
         id="path46"
         style="fill:#505256;fill-opacity:1;fill-rule:evenodd;stroke:none"
         d="m 541.723,81.957 c -5.418,-0.934 -13.911,-3.645 -18.868,-6.023 L 495.469,62.785 c -4.957,-2.379 -6.781,-6.824 -4.051,-9.875 2.727,-3.055 9.445,-5.18 14.926,-4.726 l 14.519,1.207 c 5.485,0.453 14,2.824 18.926,5.265 l 74.34,36.864 c 4.93,2.445 4.523,3.679 -0.899,2.746 L 541.723,81.957" /><path
         id="path48"
         style="fill:#f8af0c;fill-opacity:1;fill-rule:nonzero;stroke:none"
         d="m 540.785,148.754 c -0.769,-5.445 -5.879,-9.504 -11.359,-9.02 l -24.055,2.133 c -5.476,0.485 -7.711,4.781 -4.961,9.543 l 3.313,5.735 c 2.75,4.761 9.492,8.953 14.98,9.308 l 14.828,0.965 c 5.489,0.359 9.348,-3.805 8.582,-9.25 l -1.328,-9.414" /><path
         id="path50"
         style="fill:#f8af0c;fill-opacity:1;fill-rule:nonzero;stroke:none"
         d="m 483.684,122.434 c 2.75,4.761 9.402,7.722 14.781,6.578 l 28.601,-6.09 c 5.379,-1.145 9.153,-6.539 8.383,-11.984 l -1.711,-12.141 c -0.769,-5.445 -5.527,-8.109 -10.574,-5.922 l -36.051,15.633 c -5.043,2.187 -6.922,7.879 -4.172,12.64 l 0.743,1.286" /><path
         id="path52"
         style="fill:#f8af0c;fill-opacity:1;fill-rule:nonzero;stroke:none"
         d="m 519.953,70.203 c 4.695,-2.867 4.594,-7.383 -0.226,-10.031 l -14.551,-7.996 c -4.821,-2.649 -12.696,-2.629 -17.504,0.043 l -10.914,6.07 c -4.809,2.672 -9.781,9.234 -11.055,14.586 l -0.789,3.32 c -1.269,5.352 -0.453,12.942 1.813,16.867 2.265,3.926 7.961,4.793 12.652,1.926 l 40.574,-24.785" /><path
         id="path54"
         style="fill:#3a3a3c;fill-opacity:1;fill-rule:evenodd;stroke:none"
         d="M 537.211,97.688 C 532.164,95.496 525.504,89.98 522.406,85.438 L 502.074,55.621 c -3.097,-4.547 -1.367,-6.836 3.852,-5.094 l 18.012,6.02 c 5.218,1.742 12.941,6.055 17.16,9.582 l 75.429,63.012 c 4.223,3.523 3.551,4.613 -1.492,2.418 L 537.211,97.688" /><path
         id="path56"
         style="fill:#3a3a3c;fill-opacity:1;fill-rule:evenodd;stroke:none"
         d="m 401.355,69.539 c -4.886,2.527 -5.293,1.887 -0.902,-1.426 l 6.227,-4.699 c 4.39,-3.309 9.726,-5.738 11.859,-5.394 2.133,0.347 -0.117,2.695 -5.004,5.222 z m 52.106,-21.516 c -3.844,-3.937 -11.484,-7.261 -16.981,-7.394 l -2.562,-0.059 c -5.5,-0.129 -13.508,-3.054 -17.793,-6.5 L 401.52,22.328 C 397.23,18.883 389.324,17 383.945,18.148 l -2.394,0.512 c -5.379,1.145 -5.281,2.078 0.219,2.067 h 1.843 c 5.5,-0.012 13.641,2.625 18.094,5.855 l 12.145,8.809 c 4.453,3.23 6.257,7.031 4.019,8.445 -2.242,1.414 -7.613,-0.207 -11.941,-3.606 L 394.969,31.621 C 390.641,28.227 382.82,26.828 377.586,28.52 l -8.047,2.597 c -5.234,1.692 -5.07,2.371 0.359,1.516 l 6.754,-1.071 c 5.434,-0.859 13.578,0.997 18.106,4.122 l 9.09,6.281 c 4.523,3.125 5.058,8.879 1.183,12.781 l -23.883,24.082 c -3.875,3.902 -2.543,7.098 2.957,7.098 h 59.336 c 5.5,0 11.094,-4.367 12.43,-9.699 l 2.695,-10.774 c 1.336,-5.336 -0.711,-12.922 -4.55,-16.859 l -0.555,-0.571" /></g></g></svg>